Coordinates
version=1
nRows=5
nColumns=42
inDegrees=yes

Units are S.I. units (second, meters, Newtons, ...)
If the header above contains a line with 'inDegrees', this indicates whether rotational values are in degrees (yes) or radians (no).

endheader
time	pelvis_tilt	pelvis_list	pelvis_rotation	pelvis_tx	pelvis_ty	pelvis_tz	hip_flexion_r	hip_adduction_r	hip_rotation_r	knee_angle_r	knee_adduction_r	knee_angle_r_beta	ankle_angle_r	subtalar_angle_r	mtp_angle_r	hip_flexion_l	hip_adduction_l	hip_rotation_l	knee_angle_l	knee_adduction_l	knee_angle_l_beta	ankle_angle_l	subtalar_angle_l	mtp_angle_l	lumbar_extension	lumbar_bending	lumbar_rotation	arm_flex_r	arm_add_r	arm_rot_r	elbow_flex_r	pro_sup_r	wrist_flex_r	wrist_dev_r	arm_flex_l	arm_add_l	arm_rot_l	elbow_flex_l	pro_sup_l	wrist_flex_l	wrist_dev_l
      0.10000000	     18.42966866	      8.21164133	      9.67108434	     -1.75451841	      0.88795753	     -0.04336434	     14.72035216	    -13.11906375	    -31.32700095	     27.83366620	     -4.31443588	      0.48578912	     17.87893457	     11.62027841	     -9.22078800	    -26.19589532	      4.94807783	     -6.93037796	     24.99512603	     -0.64091646	      0.43624725	     28.49163101	      4.43850206	     -9.22078800	    -44.31721643	     -3.54450186	     -4.96875724	      0.47420457	     -4.37075059	    -33.99853762	     26.59636589	     90.00000001	      0.00000000	      0.00000000	     17.15562039	     -9.32690675	    -21.69275295	     38.32433786	     90.00000001	      0.00000000	      0.00000000
      0.11000000	     18.38670363	      8.19835107	      9.72917690	     -1.74490211	      0.88761557	     -0.04293734	     14.46406157	    -12.83135367	    -31.05333045	     28.37825730	     -4.55664659	      0.49529403	     17.75604893	     11.64981613	     -9.21657378	    -26.70789154	      4.71261512	     -6.89747158	     25.17163596	     -0.77167489	      0.43932793	     28.34618844	      4.50970783	     -9.21657378	    -44.06511347	     -3.45423041	     -4.99617132	      0.15737303	     -4.40697849	    -34.06255136	     26.47781546	     90.00000001	      0.00000000	      0.00000000	     16.93137396	     -9.43325405	    -21.73995396	     38.28267329	     90.00000001	      0.00000000	      0.00000000
      0.12000000	     18.38549472	      8.14461676	      9.69760522	     -1.73516698	      0.88738214	     -0.04237072	     14.23193963	    -12.51138730	    -30.81007125	     29.07777271	     -4.81041775	      0.50750287	     17.54645799	     11.66627671	     -9.21204916	    -27.25021200	      4.44233410	     -6.97156600	     25.36161741	     -0.85703277	      0.44264373	     28.06427042	      4.63840708	     -9.21204916	    -43.84395071	     -3.35239978	     -4.96494339	     -0.06430548	     -4.47482424	    -34.12994560	     26.37987808	     90.00000001	      0.00000000	      0.00000000	     16.64278092	     -9.51644278	    -21.80656267	     38.23952722	     90.00000001	      0.00000000	      0.00000000
      0.13000000	     18.38789180	      8.03046924	      9.50922192	     -1.72525823	      0.88713202	     -0.04166844	     14.13407239	    -12.20436635	    -30.73370769	     29.98478728	     -5.10659629	      0.52333326	     16.67376077	     11.35909660	     -9.09746313	    -27.59485217	      3.99363516	     -8.61054072	     25.84881017	     -1.23434334	      0.45114685	     27.42542552	      6.94262545	     -9.09746313	    -43.59069818	     -3.29201700	     -4.90547653	      0.11336314	     -4.56487766	    -35.03688069	     25.89589239	     90.00000001	      0.00000000	      0.00000000	     16.13993245	     -9.42181198	    -22.51349531	     38.94508094	     90.00000001	      0.00000000	      0.00000000
      0.14000000	     18.33568896	      7.92057600	      9.38777804	     -1.71530165	      0.88704328	     -0.04087839	     14.02504155	    -11.84202194	    -30.52688031	     30.70503296	     -5.40901251	      0.53590392	     16.27550405	     11.47972186	     -9.08216535	    -28.00241696	      3.67378812	     -8.89372434	     26.16162795	     -1.31237000	      0.45660655	     26.81105622	      7.09993302	     -9.08216535	    -43.27989846	     -3.20931078	     -4.84930253	     -0.01200318	     -4.63573068	    -35.17329969	     25.83524559	     90.00000001	      0.00000000	      0.00000000	     15.78325407	     -9.48151679	    -22.65668370	     38.84749305	     90.00000001	      0.00000000	      0.00000000
